{"title":"Sin City A Dame to Kill For 2014 1080p BluRay Remux AVC DTS-HD M","uid":11411769,"size":23757398261,"categoryP":"video","categoryS":"hd___movies","magnet":"?xt=urn:btih:42c8e0a199ac482efb22972447ffbeca23d24313&amp;dn=Sin+City+A+Dame+to+Kill+For+2014+1080p+BluRay+Remux+AVC+DTS-HD+M&amp;tr=udp%3A%2F%2Ftracker.openbittorrent.com%3A80&amp;tr=udp%3A%2F%2Fopen.demonii.com%3A1337&amp;tr=udp%3A%2F%2Ftracker.coppersurfer.tk%3A6969&amp;tr=udp%3A%2F%2Fexodus.desync.com%3A6969","seeders":0,"leechers":1,"uploader":"Alemao99","files":3,"time":1415540838,"description":"Sin City: A Dame Fatal is based on three stories from Frank Miller and has elements of Just Another Saturday Night (Just Another Saturday Night), plus two new stories, one titled The Long Bad Night. Inside the gloomy Sin City, Dwight (Josh Brolin) is sought by the only woman he ever loved, Ava Lord (Eva Green), while Nancy (Jessica Alba) tries to cope with the death of Hartigan (Bruce Willis). The plot takes place before The Big Fat Kill (present in Sin City - Sin City) and explains how Dwight came to have a dramatically different face.\n\nTitle in Portuguese: Sin City A Dame Fatal\nOriginal title: Sin City A Dame To Kill For\nCountry of Origin: United States\nGenre: Crime | Thriller\nRun Time: 1 hours and 42 minutes\nDirector: Robert Rodriguez\nRelease Year: 2014\nIMDB Link: http://www.imdb.com/title/tt0458481/\n\nSize: 22:13 GB\nFile extension: .MKV\nVideo Quality: Blu-Ray - remux\nVideo codec: H.264 / AVC\nAudio Codec: AC3 5.1 / DTS-HD MA | 5.1\nResolution: 1920 x 1080\nAudio Language: Portuguese / English\nSubtitles: Portuguese\nEmbedded subtitles: English / Spanish\n\n\nFormat                                   : Matroska\nFormat version                           : Version 2\nFile size                                : 22.1 GiB\nDuration                                 : 1h 42mn\nOverall bit rate mode                    : Variable\nOverall bit rate                         : 31.0 Mbps\nEncoded date                             : UTC 2014-11-07 00:32:32\nWriting application                      : mkvmerge v5.6.0 ('Kenya Kane') built on May 28 2012 06:47:39\nWriting library                          : libebml v1.2.2 + libmatroska v1.3.0\n\nVideo\nID                                       : 1\nFormat                                   : AVC\nFormat/Info                              : Advanced Video Codec\nFormat profile                           : &lt;a class=&quot;__cf_email__&quot; href=&quot;/cdn-cgi/l/email-protection&quot; data-cfemail=&quot;c28aaba5aa828ef6ecf3&quot;&gt;[email&amp;#160;protected]&lt;/a&gt;&lt;script cf-hash='f9e31' type=&quot;text/javascript&quot;&gt;\n/* &lt;![CDATA[ */!function(){try{var t=&quot;currentScript&quot;in document?document.currentScript:function(){for(var t=document.getElementsByTagName(&quot;script&quot;),e=t.length;e--;)if(t[e].getAttribute(&quot;cf-hash&quot;))return t[e]}();if(t&amp;&amp;t.previousSibling){var e,r,n,i,c=t.previousSibling,a=c.getAttribute(&quot;data-cfemail&quot;);if(a){for(e=&quot;&quot;,r=parseInt(a.substr(0,2),16),n=2;a.length-n;n+=2)i=parseInt(a.substr(n,2),16)^r,e+=String.fromCharCode(i);e=document.createTextNode(e),c.parentNode.replaceChild(e,c)}}}catch(u){}}();/* ]]&gt; */&lt;/script&gt;\nFormat settings, CABAC                   : Yes\nFormat settings, ReFrames                : 2 frames\nFormat settings, GOP                     : M=1, N=10\nMuxing mode                              : Header stripping\nCodec ID                                 : V_MPEG4/ISO/AVC\nDuration                                 : 1h 42mn\nBit rate mode                            : Variable\nBit rate                                 : 28.4 Mbps\nWidth                                    : 1 920 pixels\nHeight                                   : 1 080 pixels\nDisplay aspect ratio                     : 16:9\nFrame rate                               : 23.976 fps\nColor space                              : YUV\nChroma subsampling                       : 4:2:0\nBit depth                                : 8 bits\nScan type                                : Progressive\nBits/(Pixel*Frame)                       : 0.571\nStream size                              : 20.3 GiB (92%)\nDefault                                  : No\nForced                                   : No\n\nAudio #1\nID                                       : 2\nFormat                                   : AC-3\nFormat/Info                              : Audio Coding 3\nMode extension                           : CM (complete main)\nFormat settings, Endianness              : Big\nMuxing mode                              : Header stripping\nCodec ID                                 : A_AC3\nDuration                                 : 1h 42mn\nBit rate mode                            : Constant\nBit rate                                 : 448 Kbps\nChannel(s)                               : 6 channels\nChannel positions                        : Front: L C R, Side: L R, LFE\nSampling rate                            : 48.0 KHz\nBit depth                                : 16 bits\nCompression mode                         : Lossy\nStream size                              : 327 MiB (1%)\nLanguage                                 : Portuguese\nDefault                                  : Yes\nForced                                   : Yes\n\nAudio #2\nID                                       : 3\nFormat                                   : DTS\nFormat/Info                              : Digital Theater Systems\nFormat profile                           : MA / Core\nMuxing mode                              : Header stripping\nCodec ID                                 : A_DTS\nDuration                                 : 1h 42mn\nBit rate mode                            : Variable\nBit rate                                 : 1 561 Kbps / 1 510 Kbps\nChannel(s)                               : 6 channels\nChannel positions                        : Front: L C R, Side: L R, LFE\nSampling rate                            : 48.0 KHz\nBit depth                                : 24 bits\nCompression mode                         : Lossless / Lossy\nLanguage                                 : English\nDefault                                  : No\nForced                                   : No\n\n\n\nSEED PLEASE\n\nENJOY","torrent":{"xt":"urn:btih:42c8e0a199ac482efb22972447ffbeca23d24313","amp;dn":"Sin+City+A+Dame+to+Kill+For+2014+1080p+BluRay+Remux+AVC+DTS-HD+M","amp;tr":["udp%3A%2F%2Ftracker.openbittorrent.com%3A80","udp%3A%2F%2Fopen.demonii.com%3A1337","udp%3A%2F%2Ftracker.coppersurfer.tk%3A6969","udp%3A%2F%2Fexodus.desync.com%3A6969"],"infoHash":"42c8e0a199ac482efb22972447ffbeca23d24313","infoHashBuffer":{"type":"Buffer","data":[66,200,224,161,153,172,72,46,251,34,151,36,71,255,190,202,35,210,67,19]},"announce":[],"urlList":[]}}